name C:\Users\u0101727\Documents\MyRepositories\upper-imu-dc\Results\main_tracking\Case_22\kinematics.mot
datacolumns 10
datarows 28
range 0.70000000 0.97000000
endheader 
time	clav_prot	clav_elev	scapula_abduction	scapula_elevation	scapula_upward_rot	scapula_winging	plane_elv	shoulder_elv	axial_rot	
          0.70000000	        -17.79093670	         -3.35535446	         -3.30054387	         -3.55662948	         14.80959285	          4.12714269	        -18.48156474	         15.27112492	         35.46890979	
          0.71000000	        -17.78280371	         -3.43215072	         -3.32694763	         -3.55004021	         14.72146341	          4.14662954	        -18.43837725	         15.15797210	         35.75201876	
          0.72000000	        -17.74429798	         -3.42640467	         -3.28052033	         -3.53509833	         14.68806035	          4.14641101	        -18.38682088	         15.10235630	         36.04021254	
          0.73000000	        -17.71557050	         -3.40700937	         -3.23524285	         -3.51863885	         14.68711044	          4.13573747	        -18.33067912	         15.09316267	         36.33189902	
          0.74000000	        -17.69051785	         -3.37804244	         -3.18657135	         -3.50035563	         14.70658245	          4.11775949	        -18.27092883	         15.11691702	         36.61854108	
          0.75000000	        -17.66742938	         -3.34191050	         -3.13500171	         -3.48022289	         14.73961554	          4.09462926	        -18.20858158	         15.16415176	         36.88589761	
          0.76000000	        -17.65105213	         -3.30126389	         -3.08939999	         -3.45999343	         14.78426860	          4.06851563	        -18.14531581	         15.22753400	         37.11744165	
          0.77000000	        -17.65477815	         -3.25992717	         -3.07023771	         -3.44417993	         14.84416900	          4.04211205	        -18.08441192	         15.29910434	         37.29978616	
          0.78000000	        -17.70253939	         -3.22334069	         -3.11235449	         -3.44067056	         14.92925264	          4.01885999	        -18.03148792	         15.36760664	         37.42768941	
          0.79000000	        -17.82979643	         -3.19847001	         -3.26659410	         -3.46072613	         15.05583988	          4.00281518	        -17.99473478	         15.41674700	         37.50569216	
          0.80000000	        -18.08235329	         -3.19277086	         -3.59878245	         -3.51770738	         15.24494180	          3.99783866	        -17.98499386	         15.42541872	         37.54548415	
          0.81000000	        -18.51202911	         -3.21153380	         -4.18536767	         -3.62360020	         15.51728604	          4.00586322	        -18.01472407	         15.37091670	         37.56039934	
          0.82000000	        -19.16710379	         -3.25274993	         -5.10365393	         -3.78207020	         15.88292457	          4.02417635	        -18.09557572	         15.23671890	         37.56030795	
          0.83000000	        -20.07438204	         -3.29924765	         -6.41346628	         -3.97698913	         16.32241490	          4.04291292	        -18.23079508	         15.02708784	         37.54934323	
          0.84000000	        -21.17189702	         -3.31155249	         -8.06752745	         -4.15333831	         16.74583931	          4.04712131	        -18.38776839	         14.80039299	         37.53034290	
          0.85000000	        -21.58949379	         -3.29461978	         -8.68138573	         -4.21192277	         16.93728408	          4.02469479	        -18.43360091	         14.71568459	         37.50041625	
          0.86000000	        -21.41836165	         -3.23026205	         -8.47849993	         -4.12181606	         16.81047192	          4.02484668	        -18.28839039	         14.84167981	         37.44739542	
          0.87000000	        -20.96943683	         -3.15390560	         -7.85912432	         -3.98027749	         16.57735920	          4.02495179	        -18.06996842	         15.02120458	         37.37173832	
          0.88000000	        -20.50567912	         -3.10179388	         -7.17167403	         -3.87023169	         16.39945171	          4.01118100	        -17.86624004	         15.15384082	         37.26427880	
          0.89000000	        -20.74093407	         -3.03670073	         -7.61262850	         -3.82883668	         16.37902733	          4.02022107	        -17.76271997	         15.17959843	         37.12007204	
          0.90000000	        -21.32212164	         -2.98147170	         -8.55468039	         -3.85549244	         16.52137512	          4.01657980	        -17.74192002	         15.08971681	         36.93891655	
          0.91000000	        -21.54905472	         -2.92993602	         -8.88843333	         -3.86013133	         16.64421013	          3.98604473	        -17.65855272	         15.02302161	         36.71721035	
          0.92000000	        -21.27287694	         -2.86698968	         -8.44618457	         -3.78731551	         16.60719471	          3.95696369	        -17.36313440	         15.08280662	         36.44211751	
          0.93000000	        -21.04382391	         -2.76862521	         -8.11672290	         -3.68169817	         16.53526371	          3.92859740	        -16.97613737	         15.18487679	         36.11582541	
          0.94000000	        -20.93669903	         -2.63551829	         -7.95855446	         -3.57737312	         16.54584443	          3.87868684	        -16.59944166	         15.24015467	         35.73757027	
          0.95000000	        -20.97130379	         -2.47295047	         -8.01450390	         -3.47576859	         16.62428037	          3.81547783	        -16.23936133	         15.27145196	         35.30726202	
          0.96000000	        -20.96019709	         -2.29539589	         -7.97468353	         -3.36846454	         16.73534301	          3.73640643	        -15.80668321	         15.29387232	         34.81740452	
          0.97000000	        -20.87000979	         -2.07084629	         -7.77927325	         -3.23342173	         16.89521512	          3.62595155	        -15.35385036	         15.27209352	         34.30810159	
